<svg xmlns="http://www.w3.org/2000/svg" version="1.1" xmlns:xlink="http://www.w3.org/1999/xlink" xmlns:svgjs="http://svgjs.dev/svgjs" width="3840" height="2876"><svg xmlns="http://www.w3.org/2000/svg" width="3840" height="2876" viewBox="0 0 1920 1438" version="1.1">
	<path d="M 945.608 383.522 C 927.174 388.583, 911.939 404.196, 908.060 422 C 906.450 429.387, 907.415 444.665, 909.901 451.146 C 915.995 467.037, 925.870 476.452, 944.155 483.803 L 946.809 484.870 940.025 508.185 C 910.414 609.954, 884.653 675.538, 863.513 702.976 C 858.201 709.870, 850.380 717.234, 845.907 719.552 C 841.072 722.058, 834.749 721.643, 825.368 718.205 C 806.115 711.151, 787.155 696.109, 764.605 670 C 749.899 652.974, 733.958 630.847, 735.925 630.192 C 738.881 629.206, 747.816 620.995, 752.150 615.280 C 759.690 605.339, 761.401 599.762, 761.442 585 C 761.471 574.196, 761.160 571.715, 759.151 566.711 C 751.023 546.467, 734.129 534.079, 713.412 533.173 C 708.390 532.953, 701.899 533.285, 698.987 533.909 C 681.397 537.682, 666.147 551.828, 660.843 569.292 C 659.100 575.030, 658.826 578.025, 659.185 587.412 C 659.585 597.852, 659.879 599.213, 663.292 606.399 C 670.183 620.910, 683.984 632.080, 698.778 635.121 C 702.284 635.842, 704.880 636.873, 704.659 637.456 C 704.440 638.030, 702.582 643.900, 700.530 650.500 C 694.534 669.780, 684.294 696.528, 677.819 709.821 C 662.958 740.331, 649.234 753.965, 633.360 753.990 C 615.352 754.019, 584.162 744.033, 551.804 727.878 L 538.108 721.041 541.537 715.945 C 546.591 708.435, 549 699.600, 549 688.576 C 549 683.078, 548.357 677.173, 547.405 673.932 C 543.207 659.639, 533.010 647.756, 519.399 641.292 C 512.213 637.879, 510.852 637.585, 500.412 637.185 C 491.025 636.826, 488.030 637.100, 482.292 638.843 C 466.138 643.749, 452.908 656.857, 447.964 672.855 C 445.781 679.918, 445.345 693.447, 447.060 700.888 C 449 709.302, 454.150 718.210, 461 725 C 473.488 737.379, 488.113 742.009, 507 739.562 L 512.500 738.850 517.390 751.675 C 520.079 758.729, 528.973 781.825, 537.154 803 C 545.336 824.175, 553.854 846.225, 556.085 852 C 562.294 868.077, 569.161 885.475, 569.394 885.718 C 569.508 885.837, 575.654 884.360, 583.051 882.435 C 624.528 871.639, 691.892 857.321, 714.500 854.496 C 717.250 854.152, 723.325 853.239, 728 852.466 C 750.117 848.812, 797.057 843.028, 817 841.498 C 880.279 836.647, 902.332 835.733, 956 835.742 C 999.728 835.749, 1032.740 836.741, 1064 838.986 C 1071.425 839.519, 1081.325 840.198, 1086 840.495 C 1152.668 844.725, 1244.783 859.512, 1314.500 877.176 C 1354.559 887.325, 1351.017 886.591, 1352.029 884.953 C 1352.512 884.172, 1354.100 880.151, 1355.560 876.017 C 1358.745 866.991, 1402.545 746.994, 1404.476 742 C 1405.554 739.212, 1406.305 738.559, 1408.165 738.790 C 1409.449 738.950, 1413.026 739.430, 1416.114 739.856 C 1438.834 742.995, 1460.843 730.105, 1470.493 708.010 C 1473.856 700.311, 1475.014 686.202, 1473.057 676.776 C 1469.475 659.519, 1455.142 644.138, 1437.708 638.843 C 1431.970 637.100, 1428.975 636.826, 1419.588 637.185 C 1409.148 637.585, 1407.787 637.879, 1400.601 641.292 C 1386.990 647.756, 1376.793 659.639, 1372.595 673.932 C 1370.512 681.024, 1370.505 695.940, 1372.583 703.068 C 1373.453 706.056, 1375.479 710.857, 1377.085 713.739 L 1380.004 718.977 1375.252 722.492 C 1361.708 732.510, 1330.921 744.846, 1303.995 751.044 C 1288.023 754.721, 1282.109 754.608, 1273.937 750.471 C 1267.345 747.133, 1255.959 735.896, 1250.156 727 C 1238.963 709.843, 1226.394 679.611, 1217.059 647.392 C 1213.951 636.663, 1213.968 636.612, 1221.250 635.116 C 1236.016 632.081, 1249.822 620.899, 1256.708 606.399 C 1260.115 599.225, 1260.416 597.841, 1260.812 587.496 C 1261.484 569.931, 1257.545 559.328, 1246.110 547.917 C 1235.685 537.516, 1224.723 533.060, 1209.500 533.036 C 1188.990 533.004, 1172.233 543.474, 1163.147 562 C 1157.753 572.996, 1156.565 579.516, 1158.018 590.132 C 1158.632 594.616, 1160.019 600.647, 1161.100 603.537 C 1164.337 612.189, 1171.787 621.612, 1179.783 627.166 L 1184.066 630.142 1180.313 635.321 C 1153.229 672.697, 1133.212 695.159, 1115.449 708.109 C 1103.255 716.999, 1089.386 722.369, 1081.390 721.296 C 1051.962 717.349, 1018.786 648.296, 979.990 510.242 C 976.086 496.350, 973.137 484.587, 973.437 484.102 C 973.736 483.618, 975.223 482.912, 976.741 482.534 C 981.726 481.293, 990.245 475.755, 995.922 470.065 C 1008.364 457.594, 1013.810 438.210, 1009.511 421.703 C 1004.668 403.109, 990.132 388.135, 972.458 383.531 C 965.368 381.684, 952.317 381.680, 945.608 383.522 M 950.100 396.048 C 940.975 398.437, 935.359 401.649, 930.347 407.343 C 924.559 413.919, 922.500 420.520, 922.501 432.500 C 922.502 441.828, 924.339 453, 925.872 453 C 926.241 453, 927.112 450.008, 927.805 446.350 C 931.195 428.482, 943.343 409.385, 958.360 398.318 L 964.220 394 960.860 394.055 C 959.012 394.085, 954.170 394.982, 950.100 396.048 M 700.634 547.586 C 692.596 549.532, 683.531 554.562, 679.432 559.350 C 672.680 567.239, 669.839 580.164, 672.013 593.112 C 674.257 606.480, 674.842 606.800, 677.554 596.141 C 682.636 576.162, 694.355 559.238, 711.025 547.802 L 713.500 546.105 710 546.136 C 708.075 546.153, 703.860 546.806, 700.634 547.586 M 1215.737 550.429 C 1231.041 562.013, 1242.823 580.574, 1246.212 598.440 C 1246.896 602.048, 1247.726 605, 1248.056 605 C 1249.028 605, 1251.093 595.063, 1251.693 587.500 C 1253.510 564.603, 1239.782 549.154, 1215.126 546.348 L 1209.500 545.708 1215.737 550.429 M 496.347 653.095 C 479.228 655.955, 468.510 664.614, 464.326 678.965 C 462.462 685.359, 462.972 700.620, 465.296 708 L 466.713 712.500 467.396 709.500 C 471.236 692.620, 476.164 681.700, 484.901 670.706 C 490.007 664.280, 494.412 660.213, 503.500 653.534 L 505.500 652.064 503.500 652.149 C 502.400 652.196, 499.181 652.621, 496.347 653.095 M 1426 654.742 C 1444.678 669.460, 1456.642 688.331, 1459.600 707.741 L 1460.325 712.500 1461.581 709.500 C 1464.065 703.565, 1465.297 690.524, 1464.050 683.363 C 1460.866 665.083, 1449.593 655.833, 1426.500 652.552 L 1422.500 651.984 1426 654.742 M 902.500 868.608 C 881.291 869.390, 846.563 871.129, 835 871.989 C 828.125 872.500, 818.225 873.175, 813 873.488 C 757.429 876.820, 674.483 890.709, 622 905.470 C 613.369 907.898, 581.849 917.940, 581.250 918.453 C 580.582 919.025, 625.734 1035.711, 631.861 1049.250 C 633.542 1052.963, 635.404 1056, 636 1056 C 636.597 1056, 640.328 1055.347, 644.292 1054.548 C 653.983 1052.596, 672.560 1049.184, 677.500 1048.448 C 679.700 1048.120, 689.375 1046.554, 699 1044.967 C 718.024 1041.832, 754.893 1036.499, 764.500 1035.493 C 767.800 1035.148, 771.625 1034.720, 773 1034.544 C 783.930 1033.139, 827.617 1029.047, 847.500 1027.567 C 887.900 1024.559, 913.557 1023.668, 960 1023.661 C 1024.768 1023.651, 1080.556 1026.920, 1146 1034.558 C 1148.475 1034.847, 1152.525 1035.307, 1155 1035.580 C 1171.614 1037.416, 1190.727 1040.291, 1241.500 1048.588 C 1243.150 1048.858, 1251.925 1050.479, 1261 1052.191 C 1270.075 1053.903, 1278.874 1055.499, 1280.554 1055.738 C 1283.538 1056.163, 1283.722 1055.940, 1288.678 1045.836 C 1300.180 1022.388, 1337.952 922.923, 1336.646 919.521 C 1336.102 918.102, 1310.322 909.314, 1291.036 903.972 C 1272.251 898.770, 1234.204 890.276, 1217.500 887.556 C 1215.850 887.288, 1207.538 885.927, 1199.030 884.533 C 1171.485 880.020, 1128.683 874.872, 1107.500 873.525 C 1102.550 873.210, 1092.200 872.509, 1084.500 871.966 C 1048.638 869.438, 1029.272 868.852, 972.500 868.574 C 938.950 868.410, 907.450 868.425, 902.500 868.608 M 963.604 912.158 C 961.245 927.888, 945.753 943.564, 930.503 945.655 C 927.997 945.998, 926.115 946.448, 926.322 946.655 C 926.528 946.862, 929.254 947.697, 932.379 948.511 C 942.945 951.263, 951.098 956.883, 956.937 965.443 C 960.175 970.188, 963.962 979.904, 964.088 983.788 C 964.143 985.468, 964.828 984.028, 965.890 980 C 970.571 962.248, 981.255 952.195, 1000.500 947.436 C 1003.479 946.699, 1003.470 946.688, 999.176 945.886 C 983.421 942.945, 971.139 931.478, 966.494 915.373 L 964.275 907.680 963.604 912.158 M 758.068 918.068 C 757.819 934.866, 746.088 949.906, 728.055 956.550 L 724.500 957.859 729.145 957.930 C 739.690 958.090, 754.077 965.159, 760.187 973.184 C 763.136 977.057, 767.016 984.435, 767.967 987.977 C 768.474 989.868, 768.919 988.713, 769.846 983.101 C 772.536 966.816, 782.639 954.147, 796.960 949.104 L 801.762 947.413 794.432 946.247 C 785.145 944.769, 776.553 940.458, 770.165 934.070 C 765.807 929.712, 763.303 925.584, 759.204 916 C 758.231 913.724, 758.129 913.909, 758.068 918.068 M 1184.062 920.739 C 1178.449 933.523, 1165.522 943.025, 1150.605 945.332 L 1142.955 946.515 1147.728 948.235 C 1162.192 953.449, 1173.851 970.320, 1174.070 986.355 L 1174.141 991.500 1175.464 987.906 C 1177.483 982.422, 1180.002 977.882, 1183.310 973.765 C 1189.968 965.478, 1203.506 959.026, 1214.339 958.976 L 1219.500 958.953 1213.892 956.646 C 1198.713 950.402, 1189.510 938.022, 1187.239 920.795 L 1186.500 915.185 1184.062 920.739 M 852.491 927.865 C 845.335 931.116, 840.024 939.206, 840.006 946.884 C 839.988 954.352, 845.573 962.993, 852.429 966.107 C 861.022 970.010, 870.755 967.608, 877.291 959.973 C 881.393 955.180, 882.474 951.288, 881.762 943.873 C 880.463 930.357, 865.282 922.054, 852.491 927.865 M 1069.491 927.810 C 1054.947 934.616, 1052.988 953.839, 1065.835 963.688 C 1072.836 969.056, 1082.005 969.331, 1089.608 964.401 C 1095.851 960.353, 1098.390 955.853, 1098.802 948.109 C 1099.237 939.930, 1096.473 933.998, 1090.153 929.546 C 1084.704 925.708, 1075.615 924.945, 1069.491 927.810 M 660 952.961 C 649.643 954.977, 642.857 963.121, 642.857 973.537 C 642.857 980.116, 645.010 984.873, 650.046 989.423 C 665.154 1003.072, 689.358 987.899, 684.032 968.117 C 681.328 958.078, 670.099 950.996, 660 952.961 M 1260.939 953.419 C 1254.365 955.114, 1250.113 958.561, 1247.394 964.401 C 1243.237 973.328, 1244.646 981.698, 1251.449 988.501 C 1259.443 996.496, 1271.138 996.853, 1279.879 989.371 C 1290.539 980.247, 1288.911 962.596, 1276.772 955.675 C 1271.361 952.589, 1266.719 951.928, 1260.939 953.419" stroke="none" fill="#b8a47e" fill-rule="evenodd"></path>
</svg><style>@media (prefers-color-scheme: light) { :root { filter: none; } }
@media (prefers-color-scheme: dark) { :root { filter: none; } }
</style></svg>